<?xml version="1.0" standalone="no"?>
<!DOCTYPE svg PUBLIC "-//W3C//DTD SVG 20010904//EN"
 "http://www.w3.org/TR/2001/REC-SVG-20010904/DTD/svg10.dtd">
<svg version="1.0" xmlns="http://www.w3.org/2000/svg"
 width="700.000000pt" height="700.000000pt" viewBox="0 0 700.000000 700.000000"
 preserveAspectRatio="xMidYMid meet">
<metadata>
Created by potrace 1.14, written by Peter Selinger 2001-2017
</metadata>
<g transform="translate(0.000000,700.000000) scale(0.100000,-0.100000)"
fill="#000000" stroke="none">
<path d="M2303 5487 c-2 -4 -4 -674 -4 -1490 l0 -1482 448 -5 448 -5 0 -500 1
-500 -343 0 -343 1 2 -251 3 -250 988 0 987 -1 0 251 0 251 -327 -1 c-181 0
-335 1 -343 3 -14 3 -16 60 -16 503 l0 499 448 0 448 0 0 43 c1 56 1 2896 0
2922 0 20 -7 20 -1196 20 -658 0 -1198 -3 -1201 -8z"/>
<path d="M865 4715 c-385 -386 -699 -707 -698 -712 1 -4 317 -324 703 -710
l702 -702 169 170 c93 94 169 173 169 177 0 4 -239 245 -530 536 -292 291
-530 530 -530 531 0 1 238 240 530 531 291 291 530 533 530 537 0 9 -335 348
-342 346 -1 -1 -318 -317 -703 -704z"/>
<path d="M5258 5249 c-93 -92 -168 -170 -168 -173 0 -4 239 -245 531 -537
l531 -531 -46 -47 c-25 -26 -264 -265 -531 -531 -267 -267 -485 -488 -485
-492 0 -4 76 -84 170 -177 l169 -170 694 694 c382 382 699 701 706 708 10 12
-108 134 -677 703 -379 379 -698 696 -708 705 -18 16 -27 8 -186 -152z"/>
</g>
</svg>
