<svg width="210" height="69" viewBox="0 0 210 69" fill="none" xmlns="http://www.w3.org/2000/svg">
<g clip-path="url(#clip0_2376_11368)">
<g clip-path="url(#clip1_2376_11368)">
<path d="M64.6495 30.8595C64.6495 30.5525 64.8839 30.0474 64.8839 28.8423V22.1204C64.8839 20.912 64.6495 20.4267 64.6495 20.1031C64.6495 19.6904 64.8674 19.3999 65.6961 19.3999C66.0923 19.3999 66.3069 19.4725 66.5083 19.7432L71.6257 26.7689C72.3091 27.6868 72.4181 27.7594 72.5435 27.7594C72.6525 27.7594 72.669 27.6868 72.669 26.7689V22.1204C72.669 20.912 72.3091 20.4267 72.3091 20.1031C72.3091 19.6904 72.5964 19.3999 73.3722 19.3999C74.1481 19.3999 74.4188 19.6871 74.4188 20.1031C74.4188 20.4267 74.1679 20.9153 74.1679 22.1204V28.8423C74.1679 30.0507 74.4188 30.5525 74.4188 30.8595C74.4188 31.2921 74.1844 31.5793 73.3557 31.5793C72.9232 31.5793 72.7614 31.4901 72.5633 31.2359L67.5714 24.3522C66.888 23.4344 66.7427 23.3419 66.5809 23.3419C66.4357 23.3419 66.3828 23.4509 66.3828 25.0884V28.8357C66.3828 30.0441 66.7625 30.5459 66.7625 30.8529C66.7625 31.2854 66.4753 31.5727 65.6994 31.5727C64.9236 31.5727 64.6528 31.2821 64.6528 30.8529L64.6495 30.8595Z" fill="#3867E2"/>
<path d="M76.0364 26.8581C76.0364 24.0485 77.6938 22.2458 80.2723 22.2458C82.7055 22.2458 84.254 23.7942 84.254 26.2638C84.254 26.8779 84.0195 27.1651 83.5507 27.1651H78.2352C78.1626 27.1651 78.1263 27.2014 78.1263 27.2906C78.1263 28.9314 79.2257 30.0639 80.8104 30.0639C81.5302 30.0639 82.0716 29.9021 82.7385 29.5224C82.973 29.397 83.1347 29.3408 83.28 29.3408C83.4253 29.3408 83.5309 29.3937 83.6234 29.4663C83.7323 29.5554 83.7686 29.6842 83.7686 29.8097C83.7686 30.0077 83.696 30.2223 83.5507 30.4039C82.8673 31.2491 81.8042 31.7014 80.5067 31.7014C77.7862 31.7014 76.0397 29.8262 76.0397 26.8548L76.0364 26.8581ZM82.0716 25.8511C82.1443 25.8511 82.1806 25.8148 82.1806 25.7256C82.1806 24.3918 81.441 23.5631 80.2525 23.5631C78.9913 23.5631 78.1263 24.5173 78.1263 25.7256C78.1263 25.8148 78.1626 25.8511 78.2352 25.8511H82.0749H82.0716Z" fill="#3867E2"/>
<path d="M85.5383 30.8597C85.5383 30.5526 85.7727 30.0475 85.7727 28.8424V25.257C85.7727 24.0486 85.3765 23.7977 85.3765 23.1671C85.3765 22.6983 85.7727 22.5365 86.367 22.3912C86.8358 22.2658 87.1593 22.246 87.2485 22.246C87.539 22.246 87.7338 22.4441 87.7338 22.7313V23.2364C87.7338 23.4345 87.7866 23.4873 87.8791 23.4873C88.0771 23.4873 88.7969 22.2427 90.2595 22.2427C91.448 22.2427 92.2041 22.728 92.6201 23.593C92.7092 23.7383 92.7455 23.7911 92.8182 23.7911C93.0526 23.7911 93.736 22.2427 95.6113 22.2427C97.4865 22.2427 98.586 23.5567 98.586 25.8281V28.8391C98.586 30.0475 98.8369 30.5493 98.8369 30.8564C98.8369 31.2889 98.5298 31.5761 97.612 31.5761C96.5489 31.5761 96.2617 31.2856 96.2617 30.8564C96.2617 30.5493 96.6215 30.0442 96.6215 28.8391V25.9569C96.6215 24.3358 96.1692 23.56 95.1259 23.56C94.0827 23.56 93.1615 24.841 93.1615 26.3333V28.8391C93.1615 30.0475 93.5412 30.5493 93.5412 30.8564C93.5412 31.2889 93.254 31.5761 92.1909 31.5761C91.1278 31.5761 90.8405 31.2856 90.8405 30.8564C90.8405 30.5493 91.2004 30.0442 91.2004 28.8391V25.9569C91.2004 24.3358 90.7877 23.56 89.7213 23.56C88.6549 23.56 87.7404 24.8773 87.7404 26.4059V28.8391C87.7404 30.0475 88.1201 30.5493 88.1201 30.8564C88.1201 31.2889 87.8328 31.5761 86.7697 31.5761C85.8321 31.5761 85.5449 31.2856 85.5449 30.8564L85.5383 30.8597Z" fill="#3867E2"/>
<path d="M99.9125 30.9487V30.7506C99.9125 30.6053 99.9653 30.3907 100.094 30.2092L104.023 24.6064C104.294 24.2466 104.366 24.0848 104.366 23.9032C104.366 23.7778 104.277 23.6886 104.059 23.6886H103.356C102.402 23.6886 101.897 23.9956 101.573 24.1937C101.052 24.5173 100.87 24.6428 100.599 24.6428C100.256 24.6428 100.078 24.3918 100.078 24.0485C100.078 23.1835 100.619 22.3185 101.16 22.3185C101.629 22.3185 102.98 22.4274 105.126 22.4274C105.433 22.4274 105.938 22.3746 106.242 22.3746C106.872 22.3746 107.159 22.6981 107.159 23.0052V23.2033C107.159 23.3651 107.087 23.583 106.998 23.7249L103.069 29.3276C102.818 29.7073 102.725 29.8328 102.725 30.0111C102.725 30.1563 102.815 30.2455 103.032 30.2455H103.897C104.961 30.2455 105.535 29.813 105.862 29.6149C106.331 29.3243 106.492 29.2187 106.763 29.2187C107.107 29.2187 107.285 29.4531 107.285 29.813C107.285 30.678 106.743 31.5793 106.205 31.5793C105.736 31.5793 104.475 31.5265 102.422 31.5265C102.009 31.5265 101.504 31.5793 100.837 31.5793C100.206 31.5793 99.9191 31.2557 99.9191 30.9487H99.9125Z" fill="#3867E2"/>
<path d="M108.049 26.8581C108.049 24.0485 109.707 22.2458 112.285 22.2458C114.718 22.2458 116.267 23.7942 116.267 26.2638C116.267 26.8779 116.032 27.1651 115.563 27.1651H110.248C110.175 27.1651 110.139 27.2014 110.139 27.2906C110.139 28.9314 111.238 30.0639 112.823 30.0639C113.543 30.0639 114.084 29.9021 114.751 29.5224C114.986 29.397 115.147 29.3408 115.293 29.3408C115.438 29.3408 115.544 29.3937 115.636 29.4663C115.745 29.5554 115.781 29.6842 115.781 29.8097C115.781 30.0077 115.709 30.2223 115.563 30.4039C114.88 31.2491 113.817 31.7014 112.519 31.7014C109.799 31.7014 108.052 29.8262 108.052 26.8548L108.049 26.8581ZM114.088 25.8511C114.16 25.8511 114.197 25.8148 114.197 25.7256C114.197 24.3918 113.457 23.5631 112.269 23.5631C111.007 23.5631 110.142 24.5173 110.142 25.7256C110.142 25.8148 110.179 25.8511 110.251 25.8511H114.091H114.088Z" fill="#3867E2"/>
<path d="M118.173 28.9842V24.2993C118.173 23.8668 118.048 23.7414 117.688 23.7414H117.219C116.859 23.7414 116.767 23.5433 116.767 23.1999C116.767 22.9127 116.949 22.7674 117.434 22.4439C118.751 21.6152 118.731 20.5323 119.524 20.5323C119.903 20.5323 120.135 20.7304 120.135 21.1992V21.8661C120.135 22.2986 120.26 22.424 120.64 22.424H121.812C122.208 22.424 122.353 22.6056 122.353 23.0744C122.353 23.507 122.228 23.7414 121.812 23.7414H120.587C120.263 23.7414 120.135 23.8668 120.135 24.2993V29.0205C120.135 29.902 120.458 30.3907 121.072 30.3907C121.379 30.3907 121.541 30.3015 121.917 30.1001C122.043 30.0275 122.172 29.9747 122.333 29.9747C122.584 29.9747 122.782 30.1728 122.782 30.4435C122.782 30.6053 122.71 30.767 122.564 30.9288C122.152 31.3976 121.465 31.7047 120.709 31.7047C119.104 31.7047 118.167 30.8925 118.167 28.9842H118.173Z" fill="#3867E2"/>
<path d="M123.586 19.832C123.586 19.1122 124.164 18.6434 125.046 18.6434C125.927 18.6434 126.489 19.1122 126.489 19.832C126.489 20.5517 125.931 21.0205 125.046 21.0205C124.161 21.0205 123.586 20.5352 123.586 19.832ZM123.824 30.8591C123.824 30.5521 124.204 30.0469 124.204 28.8419V25.2564C124.204 24.048 123.791 23.7971 123.791 23.1665C123.791 22.6977 124.204 22.5359 124.782 22.3906C125.25 22.2652 125.594 22.2454 125.683 22.2454C125.954 22.2454 126.168 22.4435 126.168 22.7307V28.8386C126.168 30.0469 126.403 30.5488 126.403 30.8558C126.403 31.2883 126.112 31.5755 125.178 31.5755C124.115 31.5755 123.827 31.285 123.827 30.8558L123.824 30.8591Z" fill="#3867E2"/>
<path d="M134.775 30.8603C134.775 30.5532 135.01 30.0481 135.01 28.843V21.2561C135.01 20.9853 134.828 20.8071 134.468 20.8071H133.854C132.61 20.8071 131.946 21.781 131.477 21.781C131.134 21.781 130.883 21.5301 130.883 21.1141C130.883 20.3382 131.441 19.3478 132.071 19.3478C132.342 19.3478 133.854 19.4567 136.037 19.4567C138.219 19.4567 139.695 19.3478 139.965 19.3478C140.596 19.3478 141.154 20.3382 141.154 21.1141C141.154 21.5268 140.903 21.781 140.56 21.781C140.091 21.781 139.424 20.8071 138.183 20.8071H137.552C137.209 20.8071 137.011 20.9886 137.011 21.2561V28.843C137.011 30.0514 137.261 30.5532 137.261 30.8603C137.261 31.2928 136.974 31.58 136.02 31.58C135.066 31.58 134.775 31.2895 134.775 30.8603Z" fill="#3867E2"/>
<path d="M140.488 26.8581C140.488 24.0485 142.146 22.2458 144.724 22.2458C147.157 22.2458 148.706 23.7942 148.706 26.2638C148.706 26.8779 148.471 27.1651 148.003 27.1651H142.687C142.615 27.1651 142.578 27.2014 142.578 27.2906C142.578 28.9314 143.678 30.0639 145.262 30.0639C145.982 30.0639 146.524 29.9021 147.19 29.5224C147.425 29.397 147.587 29.3408 147.732 29.3408C147.877 29.3408 147.983 29.3937 148.075 29.4663C148.184 29.5554 148.221 29.6842 148.221 29.8097C148.221 30.0077 148.148 30.2223 148.003 30.4039C147.319 31.2491 146.256 31.7014 144.959 31.7014C142.238 31.7014 140.492 29.8262 140.492 26.8548L140.488 26.8581ZM146.524 25.8511C146.596 25.8511 146.632 25.8148 146.632 25.7256C146.632 24.3918 145.893 23.5631 144.704 23.5631C143.443 23.5631 142.578 24.5173 142.578 25.7256C142.578 25.8148 142.615 25.8511 142.687 25.8511H146.527H146.524Z" fill="#3867E2"/>
<path d="M149.908 30.8597C149.908 30.5527 150.159 30.0476 150.159 28.8425V21.2027C150.159 19.9944 149.746 19.7434 149.746 19.1128C149.746 18.644 150.159 18.4822 150.737 18.337C151.206 18.2115 151.549 18.1917 151.638 18.1917C151.909 18.1917 152.123 18.3898 152.123 18.677V23.1803C152.123 23.4511 152.176 23.4874 152.269 23.4874C152.52 23.4874 153.279 22.2427 154.755 22.2427C156.808 22.2427 157.762 23.5567 157.762 25.8282V28.8392C157.762 30.0476 157.997 30.5494 157.997 30.8564C157.997 31.2889 157.706 31.5762 156.772 31.5762C155.709 31.5762 155.422 31.2856 155.422 30.8564C155.422 30.5494 155.801 30.0443 155.801 28.8392V25.9569C155.801 24.3359 155.405 23.56 154.233 23.56C153.061 23.56 152.123 24.9302 152.123 26.4621V28.8392C152.123 30.0476 152.483 30.5494 152.483 30.8564C152.483 31.2889 152.193 31.5762 151.133 31.5762C150.215 31.5762 149.908 31.2856 149.908 30.8564V30.8597Z" fill="#3867E2"/>
<path d="M159.206 26.8581C159.206 24.0485 160.864 22.2458 163.442 22.2458C165.875 22.2458 167.424 23.7942 167.424 26.2638C167.424 26.8779 167.189 27.1651 166.721 27.1651H161.405C161.333 27.1651 161.296 27.2014 161.296 27.2906C161.296 28.9314 162.396 30.0639 163.98 30.0639C164.7 30.0639 165.242 29.9021 165.909 29.5224C166.143 29.397 166.305 29.3408 166.45 29.3408C166.595 29.3408 166.701 29.3937 166.793 29.4663C166.902 29.5554 166.939 29.6842 166.939 29.8097C166.939 30.0077 166.866 30.2223 166.721 30.4039C166.037 31.2491 164.974 31.7014 163.677 31.7014C160.956 31.7014 159.21 29.8262 159.21 26.8548L159.206 26.8581ZM165.245 25.8511C165.318 25.8511 165.354 25.8148 165.354 25.7256C165.354 24.3918 164.614 23.5631 163.426 23.5631C162.165 23.5631 161.3 24.5173 161.3 25.7256C161.3 25.8148 161.336 25.8511 161.409 25.8511H165.248H165.245Z" fill="#3867E2"/>
<path d="M169.327 28.9842V24.2993C169.327 23.8668 169.202 23.7414 168.842 23.7414H168.373C168.013 23.7414 167.921 23.5433 167.921 23.1999C167.921 22.9127 168.103 22.7674 168.588 22.4439C169.905 21.6152 169.885 20.5323 170.678 20.5323C171.058 20.5323 171.289 20.7304 171.289 21.1992V21.8661C171.289 22.2986 171.414 22.424 171.794 22.424H172.966C173.362 22.424 173.507 22.6056 173.507 23.0744C173.507 23.507 173.382 23.7414 172.966 23.7414H171.741C171.417 23.7414 171.289 23.8668 171.289 24.2993V29.0205C171.289 29.902 171.612 30.3907 172.226 30.3907C172.533 30.3907 172.695 30.3015 173.071 30.1001C173.197 30.0275 173.326 29.9747 173.487 29.9747C173.738 29.9747 173.936 30.1728 173.936 30.4435C173.936 30.6053 173.864 30.767 173.719 30.9288C173.306 31.3976 172.619 31.7047 171.863 31.7047C170.259 31.7047 169.321 30.8925 169.321 28.9842H169.327Z" fill="#3867E2"/>
<path d="M176.374 31.2722C176.212 31.2722 176.031 31.3449 175.853 31.3449C175.618 31.3449 175.384 31.1105 175.186 30.7506C174.971 30.3379 174.826 29.7766 174.826 29.4894C174.826 29.1659 175.024 28.9843 175.311 28.9843C175.598 28.9843 175.796 29.0734 176.123 29.4366C176.681 29.978 177.259 30.4997 178.391 30.4997C179.382 30.4997 180.049 29.978 180.049 29.1659C180.049 28.4989 179.633 28.2282 177.834 27.7594C175.78 27.2378 174.951 26.4256 174.951 24.9861C174.951 23.4014 176.374 22.2458 178.286 22.2458C178.989 22.2458 179.547 22.4637 179.798 22.4637C179.96 22.4637 180.121 22.3911 180.303 22.3911C180.554 22.3911 180.788 22.5529 181.059 23.058C181.277 23.4377 181.419 23.9428 181.419 24.23C181.419 24.5536 181.221 24.7352 180.914 24.7352C180.627 24.7352 180.445 24.6097 180.102 24.2862C179.507 23.781 179.091 23.4575 178.263 23.4575C177.289 23.4575 176.658 23.9065 176.658 24.6295C176.658 25.2964 177.143 25.6035 178.857 26.036C180.983 26.5774 181.759 27.3335 181.759 28.8456C181.759 30.5228 180.372 31.7113 178.372 31.7113C177.361 31.7113 176.625 31.2788 176.371 31.2788L176.374 31.2722Z" fill="#3867E2"/>
<path d="M182.763 26.8578C182.763 24.0482 184.421 22.2456 186.999 22.2456C189.433 22.2456 190.981 23.794 190.981 26.2636C190.981 26.8776 190.747 27.1649 190.278 27.1649H184.962C184.89 27.1649 184.853 27.2012 184.853 27.2903C184.853 28.9312 185.953 30.0636 187.537 30.0636C188.257 30.0636 188.799 29.9019 189.466 29.5222C189.7 29.3967 189.862 29.3406 190.007 29.3406C190.152 29.3406 190.258 29.3934 190.35 29.4661C190.459 29.5552 190.496 29.684 190.496 29.8094C190.496 30.0075 190.423 30.2221 190.278 30.4037C189.594 31.2489 188.531 31.7012 187.234 31.7012C184.513 31.7012 182.767 29.8259 182.767 26.8545L182.763 26.8578ZM188.799 25.8509C188.871 25.8509 188.908 25.8146 188.908 25.7254C188.908 24.3916 188.168 23.5629 186.98 23.5629C185.718 23.5629 184.853 24.517 184.853 25.7254C184.853 25.8146 184.89 25.8509 184.962 25.8509H188.802H188.799ZM185.141 20.8953C185.141 20.6774 185.286 20.4627 185.755 20.0831C187.141 19.1289 187.521 18.9308 188.006 18.9308C188.419 18.9308 188.782 19.2907 188.782 19.743C188.782 20.1557 188.511 20.4462 187.828 20.717C186.441 21.1858 185.936 21.3311 185.593 21.3311C185.342 21.3311 185.141 21.1495 185.141 20.8986V20.8953Z" fill="#3867E2"/>
<path d="M191.95 33.3628C191.95 32.785 192.293 32.2469 192.831 31.9926C192.94 31.9398 192.993 31.8672 192.993 31.811C192.993 31.7549 192.94 31.7021 192.867 31.6493C192.257 31.2894 191.93 30.7479 191.93 30.0645C191.93 29.1467 192.488 28.6052 193.3 28.2982C193.498 28.2256 193.571 28.1727 193.571 28.1001C193.571 28.0275 193.498 27.9383 193.336 27.8129C192.706 27.3441 192.201 26.5682 192.201 25.5051C192.201 23.5572 193.822 22.2432 196.199 22.2432C197.282 22.2432 197.982 22.4248 198.543 22.4248C199.444 22.4248 199.893 21.9394 200.398 21.9394C200.669 21.9394 200.831 22.1573 200.831 22.4446C200.831 23.0752 199.57 23.4548 199.57 23.6166C199.57 23.7784 200.2 24.3198 200.2 25.5084C200.2 27.6346 198.506 28.843 195.479 28.843C193.983 28.843 193.515 29.0245 193.515 29.599C193.515 30.1207 193.858 30.3749 194.578 30.3749C195.532 30.3749 196.902 30.2131 197.803 30.2131C199.84 30.2131 200.831 30.8437 200.831 32.5374C200.831 34.3763 198.741 35.6739 195.822 35.6739C193.551 35.6739 191.95 34.8815 191.95 33.3661V33.3628ZM198.922 32.9864C198.922 32.2303 198.506 31.9035 197.427 31.9035C194.815 31.9035 193.643 32.336 193.643 33.0194C193.643 34.0099 194.597 34.4787 195.915 34.4787C197.734 34.4787 198.926 33.8646 198.926 32.9831L198.922 32.9864ZM198.127 25.4721C198.127 24.2637 197.443 23.5605 196.199 23.5605C194.954 23.5605 194.29 24.3529 194.29 25.614C194.29 26.7861 194.957 27.5256 196.199 27.5256C197.44 27.5256 198.127 26.7333 198.127 25.4721Z" fill="#3867E2"/>
<path d="M64.9022 51.9274C64.9022 51.7095 65.1003 50.9898 65.1003 50.0158V42.4124C65.1003 41.4384 64.9022 40.7187 64.9022 40.5041C64.9022 40.2697 65.0112 40.1442 65.1928 40.1442C65.6781 40.1442 66.1469 40.1805 66.6355 40.1805C67.319 40.1805 68.0057 40.1442 68.6891 40.1442C71.6968 40.1442 73.2287 41.2998 73.2287 43.5877C73.2287 46.1266 71.644 47.4802 68.6891 47.4802H66.8865C66.2724 47.4802 66.1667 47.642 66.1667 47.9656V50.0191C66.1667 50.9931 66.4374 51.7128 66.4374 51.9307C66.4374 52.1651 66.2559 52.2906 65.6253 52.2906C65.0673 52.2906 64.9055 52.1651 64.9055 51.9307L64.9022 51.9274ZM72.1095 43.6042C72.1095 41.8742 70.9375 41.0455 68.5967 41.0455C66.2559 41.0455 66.1634 41.0818 66.1634 41.6959V46.1662C66.1634 46.5459 66.3615 46.5789 68.5042 46.5789C71.0266 46.5789 72.1095 45.7139 72.1095 43.6075V43.6042Z" fill="#3867E2"/>
<path d="M75.0177 51.9276C75.0177 51.7097 75.2158 50.9899 75.2158 50.016V45.4565C75.2158 44.4826 74.9088 44.0138 74.9088 43.6011C74.9088 43.403 75.1432 43.2577 75.5196 43.1488C75.7705 43.0761 76.0049 43.0596 76.061 43.0596C76.1865 43.0596 76.2789 43.1323 76.2789 43.2577V44.2317C76.2789 44.575 76.3515 44.6114 76.4407 44.6114C76.6586 44.6114 77.1439 43.0629 78.6923 43.0629C79.4484 43.0629 79.9007 43.4426 79.9007 44.0369C79.9007 44.5585 79.5574 44.9745 78.9994 44.9745C78.5306 44.9745 78.4051 44.6873 78.3325 44.4331C78.2796 44.2515 78.2235 44.1095 78.0254 44.1095C77.3057 44.1095 76.2789 46.0904 76.2789 47.4078V50.0193C76.2789 50.9932 76.5496 51.713 76.5496 51.9309C76.5496 52.1653 76.3681 52.2907 75.7375 52.2907C75.2158 52.2907 75.0177 52.1653 75.0177 51.9309V51.9276Z" fill="#3867E2"/>
<path d="M88.8717 47.675C88.8717 50.3955 87.1252 52.4326 84.7646 52.4326C82.404 52.4326 80.6575 50.4847 80.6575 47.8005C80.6575 45.1163 82.4238 43.0628 84.7646 43.0628C87.1054 43.0628 88.8717 44.9909 88.8717 47.675ZM87.7558 47.675C87.7558 45.3508 86.6036 43.9641 84.7646 43.9641C82.9257 43.9641 81.7734 45.4399 81.7734 47.8005C81.7734 50.1611 82.9257 51.5312 84.7646 51.5312C86.6036 51.5312 87.7558 50.0522 87.7558 47.675Z" fill="#3867E2"/>
<path d="M89.9566 54.0178C89.9566 53.2618 90.442 52.5949 91.2013 52.377C91.3103 52.3407 91.3829 52.268 91.3829 52.2152C91.3829 52.1624 91.3466 52.1261 91.274 52.0897C90.5905 51.7662 90.2472 51.2974 90.2472 50.6668C90.2472 49.7489 90.9141 49.3164 91.6173 49.1349C91.8352 49.082 91.8881 49.0457 91.8881 48.9731C91.8881 48.9203 91.8154 48.8278 91.6371 48.7024C91.023 48.2698 90.3925 47.494 90.3925 46.2526C90.3925 44.4335 91.9409 43.0633 94.0143 43.0633C94.7175 43.0633 95.2589 43.2449 96.0678 43.2449C97.2399 43.2449 97.5832 42.8322 98.0124 42.8322C98.2468 42.8322 98.3558 42.9577 98.3558 43.1756C98.3558 43.9151 96.913 44.0769 96.913 44.2189C96.913 44.3278 97.6327 44.9023 97.6327 46.2361C97.6327 48.326 96.1735 49.5343 93.6511 49.5343C91.9409 49.5343 91.307 49.8051 91.307 50.5611C91.307 51.2082 91.6669 51.5153 92.4229 51.5153C93.3605 51.5153 94.351 51.3898 95.1962 51.3898C97.3389 51.3898 98.3492 52.0402 98.3492 53.4797C98.3492 55.2262 96.2428 56.3983 93.7006 56.3983C91.7197 56.3983 89.9533 55.5861 89.9533 54.0211L89.9566 54.0178ZM97.2365 53.658C97.2365 52.6312 96.6951 52.2878 95.1632 52.2878C92.6243 52.2878 91.0726 52.9184 91.0726 53.9089C91.0726 55.0446 92.3173 55.4936 93.7039 55.4936C95.6155 55.4936 97.2365 54.7904 97.2365 53.6547V53.658ZM96.5135 46.2328C96.5135 44.8098 95.5957 43.9613 94.0109 43.9613C92.4262 43.9613 91.5084 44.8792 91.5084 46.3583C91.5084 47.7086 92.4262 48.6297 94.0109 48.6297C95.5957 48.6297 96.5135 47.7119 96.5135 46.2328Z" fill="#3867E2"/>
<path d="M99.813 51.9276C99.813 51.7097 100.011 50.9899 100.011 50.016V45.4565C100.011 44.4826 99.704 44.0138 99.704 43.6011C99.704 43.403 99.9385 43.2577 100.315 43.1488C100.566 43.0761 100.8 43.0596 100.856 43.0596C100.982 43.0596 101.074 43.1323 101.074 43.2577V44.2317C101.074 44.575 101.147 44.6114 101.236 44.6114C101.454 44.6114 101.939 43.0629 103.488 43.0629C104.244 43.0629 104.696 43.4426 104.696 44.0369C104.696 44.5585 104.353 44.9745 103.795 44.9745C103.326 44.9745 103.2 44.6873 103.128 44.4331C103.075 44.2515 103.019 44.1095 102.821 44.1095C102.101 44.1095 101.074 46.0904 101.074 47.4078V50.0193C101.074 50.9932 101.345 51.713 101.345 51.9309C101.345 52.1653 101.163 52.2907 100.533 52.2907C100.011 52.2907 99.813 52.1653 99.813 51.9309V51.9276Z" fill="#3867E2"/>
<path d="M105.573 49.8179C105.573 48.0714 107.068 47.0611 109.554 47.0611H111.248C111.535 47.0611 111.608 46.9158 111.608 46.6286C111.608 44.8821 110.868 43.9609 109.429 43.9609C107.59 43.9609 107.375 45.2386 106.656 45.2386C106.349 45.2386 106.134 45.0571 106.134 44.7533C106.134 44.4496 106.458 44.0864 106.926 43.7794C107.666 43.3105 108.402 43.0596 109.429 43.0596C111.483 43.0596 112.671 44.3736 112.671 46.6286V50.881C112.671 51.4224 112.797 51.5314 113.104 51.5314C113.355 51.5314 113.483 51.6767 113.483 51.8748C113.483 52.2709 113.104 52.4327 112.691 52.4327C112.041 52.4327 111.608 52.0365 111.608 51.3168C111.608 51.155 111.555 51.0989 111.483 51.0989C111.393 51.0989 111.337 51.1187 110.618 51.6932C110.003 52.1983 109.195 52.4327 108.382 52.4327C106.834 52.4327 105.573 51.3168 105.573 49.8212V49.8179ZM111.608 48.5204V48.3223C111.608 48.0879 111.499 47.9624 111.248 47.9624H109.733C107.57 47.9624 106.689 48.4477 106.689 49.8014C106.689 50.8843 107.501 51.5314 108.564 51.5314C110.112 51.5314 111.608 50.0523 111.608 48.5204Z" fill="#3867E2"/>
<path d="M114.918 51.9276C114.918 51.7097 115.116 50.9899 115.116 50.016V45.4565C115.116 44.4826 114.809 44.0138 114.809 43.6011C114.809 43.403 115.043 43.2577 115.419 43.1488C115.67 43.0761 115.905 43.0596 115.961 43.0596C116.086 43.0596 116.179 43.1323 116.179 43.2577V44.2317C116.179 44.5387 116.215 44.6114 116.341 44.6114C116.522 44.6114 117.404 43.0629 118.916 43.0629C120.16 43.0629 120.989 43.6572 121.422 44.8656C121.474 45.0108 121.511 45.0835 121.567 45.0835C121.765 45.0835 122.432 43.0662 124.449 43.0662C126.268 43.0662 127.206 44.4364 127.206 46.7408V50.0193C127.206 50.9932 127.404 51.713 127.404 51.9309C127.404 52.1653 127.206 52.2907 126.684 52.2907C126.054 52.2907 125.872 52.1653 125.872 51.9309C125.872 51.713 126.143 50.9932 126.143 50.0193V46.7574C126.143 44.9019 125.565 43.9643 124.268 43.9643C122.97 43.9643 121.689 45.7306 121.689 47.5695V50.0193C121.689 50.9932 121.96 51.713 121.96 51.9309C121.96 52.1653 121.778 52.2907 121.148 52.2907C120.517 52.2907 120.355 52.1653 120.355 51.9309C120.355 51.713 120.626 50.9932 120.626 50.0193V46.7574C120.626 44.9019 120.048 43.9643 118.734 43.9643C117.42 43.9643 116.175 45.7306 116.175 47.5695V50.0193C116.175 50.9932 116.446 51.713 116.446 51.9309C116.446 52.1653 116.265 52.2907 115.634 52.2907C115.112 52.2907 114.914 52.1653 114.914 51.9309L114.918 51.9276Z" fill="#3867E2"/>
<path d="M22.7424 53.8052C22.6711 53.636 22.6058 53.538 22.5524 53.538C22.5108 53.538 22.4752 53.5974 22.4574 53.7251C22.303 54.8176 22.1961 55.5984 22.0417 56.6968C21.9675 57.2312 22.0388 57.3975 22.1041 57.5519C22.4871 58.4514 23.2827 60.3158 23.2827 60.3158C23.3539 60.4791 23.4697 60.7582 23.5439 60.7463C23.6211 60.7344 23.6597 60.4969 23.6835 60.3307C23.7072 60.1792 23.9269 58.5672 24.0457 57.9527C24.1615 57.3589 24.0219 56.8958 23.7755 56.305C23.44 55.4945 23.0868 54.6365 22.7453 53.8052H22.7424Z" fill="#3867E2"/>
<path d="M26.6818 55.3965C26.7025 55.5033 26.7946 55.7201 26.9104 55.7201C27.0261 55.7201 27.1152 55.5033 27.139 55.3965C27.2072 55.0462 27.7654 52.7453 27.899 52.0774C27.9969 51.5875 28.0385 51.3797 28.0118 50.9225C27.9851 50.4772 27.9019 49.0195 27.8871 48.7315C27.8812 48.6454 27.8663 48.3545 27.7743 48.3782C27.6941 48.399 27.6585 48.589 27.608 48.8651C27.5932 48.9542 27.1538 51.6469 26.9608 52.7245C26.9608 52.7245 26.9549 52.7513 26.9133 52.7513C26.8718 52.7513 26.8658 52.7245 26.8658 52.7245C26.6729 51.6469 26.2335 48.9542 26.2186 48.8651C26.1682 48.586 26.1325 48.396 26.0524 48.3782C25.9603 48.3545 25.9455 48.6454 25.9396 48.7315C25.9218 49.0195 25.8386 50.4772 25.8149 50.9225C25.7882 51.3797 25.8297 51.5875 25.9277 52.0774C26.0613 52.7453 26.6164 55.0462 26.6877 55.3965H26.6818Z" fill="#3867E2"/>
<path d="M19.7919 48.3782C19.7206 48.2238 19.6553 48.1496 19.6048 48.1496C19.5484 48.1496 19.5128 48.203 19.4623 48.4435C19.3228 49.1293 18.9279 51.0412 18.8745 51.3024C18.8151 51.5845 18.8686 51.7774 18.9814 52.006C19.3079 52.671 20.1333 54.3484 20.2342 54.5503C20.3292 54.7433 20.4776 54.7225 20.543 54.4108C20.6736 53.7695 20.9645 52.3653 21.0358 52.0149C21.1753 51.3381 20.9942 50.9491 20.8814 50.7057C20.7241 50.3702 19.9997 48.8205 19.7919 48.3782Z" fill="#3867E2"/>
<path d="M23.6394 47.8707C23.6008 47.743 23.5444 47.556 23.4732 47.5382C23.3663 47.5085 23.3514 47.6332 23.3307 47.7579C23.2208 48.5149 23.1228 49.2779 23.0189 50.0468C22.9655 50.4387 22.8883 50.9286 23.0249 51.3739C23.9304 54.2803 23.8769 54.1052 23.9304 54.2803C23.9927 54.4822 24.0639 54.7138 24.15 54.7138C24.2361 54.7138 24.2866 54.5327 24.3015 54.405C24.3786 53.8588 24.4469 53.3006 24.5152 52.7484C24.5657 52.3447 24.631 51.9469 24.6666 51.5283C24.6785 51.3976 24.628 51.1987 24.5835 51.0443C24.3341 50.2012 23.6988 48.0844 23.6364 47.8737L23.6394 47.8707Z" fill="#3867E2"/>
<path d="M17.0239 42.9694C16.8962 42.7557 16.8131 42.6399 16.7389 42.6399C16.6587 42.6399 16.5964 42.7824 16.5281 43.0852C16.4776 43.293 16.1214 44.7507 15.9937 45.2762C15.8364 45.9263 15.8512 45.956 16.2579 46.6359C16.3796 46.8407 17.0625 47.9867 17.2762 48.3459C17.4336 48.6131 17.5256 48.6161 17.6533 48.0936C17.7423 47.7225 18.149 46.0629 18.2648 45.5849C18.342 45.2673 18.2737 45.0416 18.1401 44.8219C17.769 44.2074 17.4009 43.6018 17.0179 42.9724L17.0239 42.9694Z" fill="#3867E2"/>
<path d="M26.7736 48.7731C26.7736 48.7731 26.7825 48.88 26.9072 48.88C27.0319 48.88 27.0408 48.7731 27.0408 48.7731L27.5396 44.2457C27.5772 43.9567 27.5841 43.645 27.5604 43.3105L27.4535 41.7519C27.4535 41.7519 27.4357 41.5144 27.3644 41.5144C27.2575 41.5144 27.213 41.9894 27.213 41.9894C27.0794 43.2155 26.9636 44.8573 26.9191 45.4629C26.9191 45.4837 26.8894 45.4837 26.8864 45.4629C26.8449 44.8573 26.7261 43.2126 26.5925 41.9894C26.5925 41.9894 26.548 41.5174 26.4411 41.5144C26.3699 41.5144 26.3521 41.7519 26.3521 41.7519L26.2452 43.3105C26.2214 43.645 26.2284 43.9567 26.266 44.2457L26.7647 48.7731H26.7736Z" fill="#3867E2"/>
<path d="M22.1013 44.2608C21.8906 43.6077 21.2285 41.5681 21.1157 41.2149C21.0682 41.0724 21.0504 41.007 20.9702 41.007C20.8901 41.007 20.8723 41.0931 20.8515 41.1822C20.7208 41.7819 20.5872 42.3875 20.4566 42.9932C20.3765 43.3613 20.2755 43.7205 20.2607 44.1243C20.2518 44.3855 20.3586 44.7359 20.4447 45.0149C20.7179 45.8818 21.0029 46.7398 21.2909 47.5889C21.3294 47.7047 21.3799 47.862 21.5016 47.8531C21.6115 47.8442 21.6352 47.7522 21.6471 47.6928C21.8252 46.7457 21.9915 45.864 22.1548 44.9941C22.2023 44.7418 22.1904 44.5429 22.1013 44.2638V44.2608Z" fill="#3867E2"/>
<path d="M24.3156 40.698C24.3156 40.698 24.2711 40.4634 24.2028 40.4575C24.1434 40.4515 24.1137 40.6386 24.1137 40.6386C24.0455 41.1017 23.805 42.5861 23.7397 42.9988C23.6506 43.5569 23.6447 43.5599 23.8228 44.403C23.9594 45.0621 24.2414 46.4782 24.3988 47.2353C24.4344 47.4104 24.5145 47.7964 24.6125 47.7964C24.6986 47.7964 24.7431 47.4935 24.7669 47.3362C24.8292 46.9265 24.9925 45.7657 25.0489 45.3857C25.0944 45.0769 25.0727 44.691 24.9836 44.2279C24.847 43.5064 24.3988 41.1166 24.3186 40.695L24.3156 40.698Z" fill="#3867E2"/>
<path d="M14.0909 36.6871C13.9573 36.5001 13.8653 36.3932 13.7643 36.3932C13.6307 36.3932 13.5654 36.4971 13.4288 36.8771C13.4288 36.8771 12.8262 38.5397 12.6659 38.982C12.5441 39.3175 12.5412 39.5847 12.7341 39.84C13.0518 40.2616 14.0849 41.6391 14.3046 41.933C14.465 42.1468 14.6104 42.1794 14.7589 41.7697C14.9875 41.1463 15.4862 39.7747 15.5159 39.6916C15.7386 39.077 15.7593 39.0265 15.4031 38.5278C15.0973 38.1003 14.2364 36.889 14.0939 36.6871H14.0909Z" fill="#3867E2"/>
<path d="M19.4171 39.2225C19.4735 38.982 19.5358 38.7297 19.5358 38.4892C19.5358 38.2131 19.4349 37.9667 19.328 37.6906C19.1054 37.1147 18.5057 35.5531 18.4166 35.3215C18.3691 35.1968 18.3097 35.1553 18.2652 35.1553C18.2118 35.1553 18.1643 35.2443 18.1257 35.3987C17.9742 35.9984 17.5497 37.6787 17.4903 37.9162C17.3627 38.4239 17.4636 38.6792 17.6002 39.0177C17.9149 39.8103 18.2325 40.5971 18.5502 41.3838C18.6957 41.746 18.8204 41.7193 18.9094 41.3482C19.0163 40.8999 19.3102 39.6767 19.4201 39.2225H19.4171Z" fill="#3867E2"/>
<path d="M22.3803 34.6C22.2764 34.5614 22.2408 34.7603 22.2111 34.8969L21.7094 37.2304C21.6174 37.6608 21.6649 37.8776 21.7836 38.4416C21.9499 39.2135 22.4249 41.4223 22.4724 41.645C22.508 41.8112 22.5199 41.8706 22.5852 41.8706C22.6386 41.8706 22.6564 41.7934 22.6683 41.7251C22.6832 41.6509 23.1582 39.2877 23.1968 39.1037C23.2769 38.7207 23.2829 38.6138 23.2086 38.2576C22.986 37.1829 22.7574 36.0903 22.5317 35.0067C22.4991 34.8464 22.4546 34.6327 22.3774 34.6059L22.3803 34.6Z" fill="#3867E2"/>
<path d="M25.6016 39.3445C25.6491 38.9793 25.6313 38.7804 25.6105 38.5399C25.5333 37.6879 25.3255 35.4524 25.2454 34.5914C25.2246 34.3807 25.2068 34.1758 25.1325 34.161C25.0613 34.1461 25.0494 34.2619 25.0286 34.3658C25.0286 34.3658 24.7555 36.1887 24.7288 36.3668C24.6219 37.0704 24.6219 37.0882 24.7021 37.8631C24.7882 38.6824 24.9782 40.4815 25.0643 41.3009C25.0821 41.4672 25.1118 41.7819 25.2008 41.7937C25.275 41.8027 25.3077 41.5503 25.3255 41.4197C25.3671 41.099 25.5541 39.7007 25.6016 39.3415V39.3445Z" fill="#3867E2"/>
<path d="M12.6183 33.843C12.078 33.1245 11.5317 32.4031 11.0122 31.7114C10.9617 31.646 10.9231 31.646 10.8904 31.646C10.8103 31.646 10.745 31.7618 10.6856 31.8568C10.3323 32.4714 9.29916 34.2705 9.15666 34.5198C8.97556 34.8345 8.94884 35.0572 9.09432 35.2591C9.09432 35.2591 10.1601 36.7524 10.647 37.4352C10.8637 37.738 10.9765 37.5391 11.22 37.1235C11.6445 36.3902 12.0661 35.6688 12.4758 34.9622C12.737 34.5139 12.835 34.1309 12.6183 33.8459V33.843Z" fill="#3867E2"/>
<path d="M15.9524 35.9746C16.0207 36.1082 16.0711 36.2032 16.1602 36.2032C16.2641 36.2032 16.3294 35.9508 16.368 35.7964C16.4155 35.6064 16.8222 34.0359 16.9796 33.4184C17.0746 33.0533 16.9529 32.8187 16.8608 32.6376C16.4749 31.8836 16.1038 31.1562 15.7268 30.4229C15.6614 30.2982 15.5961 30.2359 15.5368 30.2359C15.4596 30.2359 15.3943 30.3398 15.3586 30.5476C15.1686 31.2393 14.756 32.8039 14.7263 32.9167C14.6431 33.2225 14.6075 33.362 14.8332 33.7955C15.1894 34.4753 15.5872 35.265 15.9524 35.9746Z" fill="#3867E2"/>
<path d="M20.4625 28.7486C20.424 28.7486 20.3883 28.802 20.3557 28.9119C20.3557 28.9119 19.851 30.7525 19.6728 31.3967C19.5333 31.9014 19.5422 31.9341 19.7025 32.5278C19.8836 33.1929 20.4685 35.372 20.5665 35.7312C20.5813 35.7846 20.5991 35.8499 20.6466 35.8499C20.7238 35.8499 20.7505 35.749 20.7594 35.7104C20.804 35.5263 21.2522 33.6412 21.4393 32.8752C21.5076 32.5932 21.4779 32.3764 21.3888 32.038C21.2819 31.6253 20.7268 29.5205 20.5754 28.9386C20.5427 28.8139 20.5011 28.7486 20.4625 28.7486Z" fill="#3867E2"/>
<path d="M23.5645 35.2147C23.5763 35.3246 23.612 35.6185 23.704 35.6185C23.7901 35.6185 23.8435 35.3483 23.8673 35.2088C24.0068 34.4636 24.1493 33.7066 24.2918 32.9377C24.3235 32.7694 24.3215 32.5042 24.2859 32.142C24.176 31.0406 24.0662 29.9421 23.9563 28.8348C23.9296 28.5824 23.8881 28.1431 23.7871 28.0777C23.6951 28.0184 23.6506 28.1965 23.6149 28.3746L23.5882 28.4934C23.5882 28.4934 23.2913 29.8798 23.1548 30.5211C23.1102 30.7259 23.0657 30.9426 23.0894 31.1504C23.2498 32.5042 23.4101 33.8699 23.5674 35.2118L23.5645 35.2147Z" fill="#3867E2"/>
<path d="M9.16881 28.7756C8.59583 28.1403 8.02879 27.4753 7.46472 26.8311C7.343 26.6915 7.20347 26.5312 7.01346 26.5342C6.92143 26.5342 6.79674 26.6143 6.73143 26.7479C6.73143 26.7479 5.65672 28.838 5.17875 29.7672C4.90265 30.3075 4.93827 30.6103 5.19953 30.8657C5.40734 31.0705 6.87393 32.5223 7.21237 32.8607C7.42613 33.0715 7.4855 32.9973 7.70816 32.5757C8.19801 31.6376 8.6849 30.7083 9.18366 29.7583C9.45975 29.2328 9.436 29.0695 9.17178 28.7756H9.16881Z" fill="#3867E2"/>
<path d="M12.7578 24.8208C12.6747 24.8208 12.639 24.8742 12.5619 25.1355C12.5619 25.1355 12.1403 26.5546 11.9354 27.2463C11.7959 27.7154 11.7929 27.8935 12.0334 28.2646C12.265 28.6208 13.1853 30.0785 13.3753 30.3784C13.5 30.5743 13.6395 30.4407 13.7078 30.1616C13.9097 29.3452 14.1175 28.4962 14.3105 27.7065C14.3966 27.3621 14.3728 27.1602 14.2422 26.9613C13.7909 26.2755 13.3456 25.5956 12.9092 24.9306C12.8587 24.8534 12.8053 24.8178 12.7578 24.8178V24.8208Z" fill="#3867E2"/>
<path d="M18.0759 23.6543C17.9809 23.6365 17.9602 23.7137 17.9305 23.8265L17.2862 26.0857C17.1457 26.5766 17.1764 27.107 17.3783 27.677C17.3783 27.677 17.9631 29.3485 18.26 30.1797C18.2986 30.2866 18.3402 30.4024 18.4352 30.4024C18.5331 30.4024 18.5628 30.2925 18.6044 30.1293L19.2932 27.4633C19.3585 27.2139 19.3407 27.1664 19.2843 26.9972C18.9458 25.9848 18.6014 24.9843 18.266 23.966C18.2006 23.7641 18.1413 23.6691 18.073 23.6543H18.0759Z" fill="#3867E2"/>
<path d="M21.9497 29.0838C21.9705 29.2204 22.0002 29.3896 22.0922 29.4193C22.214 29.4549 22.2496 29.3095 22.2704 29.2026C22.4247 28.5079 22.873 26.6672 22.873 26.6672C22.9473 26.3615 22.9473 26.1744 22.8968 25.836C22.8285 25.3877 22.3268 22.0537 22.309 21.935C22.2882 21.8043 22.2793 21.7331 22.2347 21.7093C22.1665 21.6737 22.1338 21.7925 22.1041 21.8964C21.9646 22.404 21.451 24.2685 21.3352 24.6871C21.3055 24.7969 21.2818 24.9513 21.2996 25.0641C21.4629 26.0764 21.8993 28.7929 21.9438 29.0809L21.9497 29.0838Z" fill="#3867E2"/>
<path d="M5.17891 23.8054C4.52874 23.0811 3.89045 22.321 3.24028 21.5937C3.09778 21.4334 2.87512 21.1781 2.73262 21.1513C2.59605 21.1246 2.48027 21.3473 2.40605 21.4987C1.87463 22.5407 1.19478 23.8529 0.639614 24.9336C0.324921 25.5481 0.360547 25.8984 0.660396 26.1864C0.900868 26.415 2.5723 28.0805 2.95231 28.4546C3.21356 28.7129 3.26106 28.6179 3.51638 28.131C4.07451 27.0622 4.62968 26.0024 5.19375 24.9247C5.50844 24.325 5.48173 24.138 5.18188 23.8054H5.17891Z" fill="#3867E2"/>
<path d="M8.83905 20.7089C8.7678 20.6079 8.72326 20.5456 8.66982 20.5337C8.60748 20.5218 8.53029 20.5812 8.50357 20.6525C8.29279 21.2343 7.68715 22.9058 7.64559 23.0275C7.48824 23.4609 7.45262 23.6183 7.68121 23.9775C8.09388 24.6277 9.17452 26.3436 9.30812 26.5544C9.40312 26.7058 9.52484 26.7237 9.59609 26.5188C9.77422 26.0082 10.4303 24.1408 10.5758 23.7311C10.6649 23.4758 10.6411 23.2531 10.5134 23.0602C10.1839 22.5614 9.05874 21.0117 8.83905 20.7059V20.7089Z" fill="#3867E2"/>
<path d="M15.4188 24.8121L16.1461 22.1254C16.2292 21.8255 16.2055 21.6266 16.0838 21.3535C15.6978 20.4747 15.3267 19.5693 14.9586 18.6608C14.8755 18.453 14.8012 18.3491 14.7359 18.3491C14.6647 18.3491 14.6023 18.4797 14.5459 18.7499C14.445 19.0764 13.8245 21.2288 13.8245 21.2288C13.7829 21.4158 13.8186 21.7483 13.8779 21.9473L15.1219 24.8567C15.2347 25.109 15.3445 25.0912 15.4188 24.8181V24.8121Z" fill="#3867E2"/>
<path d="M19.8147 23.4375C19.8444 23.5652 19.9275 23.7166 20.0047 23.7166C20.0819 23.7166 20.1116 23.5949 20.1353 23.491C20.2422 23.0249 20.6549 21.2673 20.7588 20.8606C20.833 20.5726 20.8122 20.344 20.741 20.0234L19.883 16.2263C19.8682 16.161 19.7761 16.158 19.7553 16.2233L18.9834 19.017C18.9063 19.2961 18.9181 19.5514 18.9953 19.8779C19.1319 20.4687 19.6781 22.8616 19.8117 23.4375H19.8147Z" fill="#3867E2"/>
<path d="M5.94159 21.8906C6.04847 22.0301 6.16722 21.9173 6.22066 21.7629L7.28646 18.5893C7.37849 18.2953 7.35771 18.0697 7.21817 17.8975L5.39533 15.8431C5.32705 15.7748 5.23502 15.6887 5.19049 15.6828C5.11923 15.6709 5.05095 15.7659 5.01829 15.858L4.08312 18.5685C3.88421 19.0702 3.87531 19.2365 4.12172 19.5601C4.57297 20.1419 5.80503 21.7154 5.93862 21.8876L5.94159 21.8906Z" fill="#3867E2"/>
<path d="M11.5564 14.1006C11.4911 14.1006 11.4643 14.1243 11.3486 14.4895L10.5856 16.9209C10.4728 17.2594 10.5024 17.5384 10.6271 17.7789L11.9126 20.3083C12.1234 20.7269 12.2184 20.6794 12.3698 20.1807L13.21 17.5444C13.302 17.2594 13.1951 17.105 13.112 16.9476C12.83 16.4043 11.7761 14.3737 11.7761 14.3737C11.6811 14.1926 11.6157 14.1006 11.5593 14.1006H11.5564Z" fill="#3867E2"/>
<path d="M17.1436 18.4319C17.2297 18.7318 17.3543 18.7318 17.4375 18.426C17.6898 17.4611 17.9392 16.4874 18.1826 15.5136C18.2034 15.4305 18.2212 15.3028 18.2005 15.2286C18.0817 14.804 17.2415 11.8085 17.1317 11.4137C17.099 11.2949 17.0634 11.2356 17.0278 11.2356C16.9981 11.2356 16.9684 11.2771 16.9446 11.3632C16.7665 12.0193 16.1995 13.9431 16.1045 14.2786C16.0332 14.522 16.057 14.6912 16.1371 14.9584C16.3479 15.6828 17.0248 18.0133 17.1465 18.4349L17.1436 18.4319Z" fill="#3867E2"/>
<path d="M8.65571 16.0213C8.89321 16.3894 8.99712 16.3033 9.17228 15.7007L10.1134 12.5092C10.2173 12.1619 10.0956 12.0401 10.0035 11.9006L8.49539 9.64135C8.40039 9.50182 8.33211 9.4276 8.27273 9.4276C8.18664 9.4276 8.14804 9.48697 8.01741 9.93526L7.1624 12.8714C7.03474 13.2841 7.0674 13.572 7.2099 13.7858L8.65868 16.0183L8.65571 16.0213Z" fill="#3867E2"/>
<path d="M14.4683 14.2522C14.6078 14.6501 14.7117 14.6263 14.8275 14.1988C15.0858 13.2577 15.35 12.3225 15.6202 11.3963C15.7211 11.0519 15.6914 10.8055 15.5727 10.4789C15.2075 9.48435 14.875 8.44824 14.5247 7.43291C14.4772 7.29338 14.4178 7.12712 14.3436 7.09447C14.2516 7.05587 14.2159 7.16869 14.1803 7.29338C14.1417 7.4151 13.2956 10.1731 13.2154 10.4403C13.1887 10.5294 13.1917 10.6927 13.2154 10.7698C13.4886 11.5358 14.3317 13.8544 14.4712 14.2552L14.4683 14.2522Z" fill="#3867E2"/>
<path d="M11.7075 10.0304C11.8856 10.3154 11.9836 10.2115 12.0726 9.66816C12.2656 8.48955 12.4497 7.31094 12.6486 6.13529C12.7228 5.69888 12.6634 5.47919 12.5209 5.24465C12.0875 4.53808 11.6214 3.77806 11.1701 3.04477C11.1167 2.95867 11.0306 2.81617 10.9326 2.84883C10.8554 2.87852 10.8287 3.03586 10.799 3.19915L10.0746 7.22781C10.0598 7.34062 10.0746 7.50688 10.1043 7.56031C10.4517 8.10657 11.5264 9.73941 11.7075 10.0304Z" fill="#3867E2"/>
<path d="M28.3054 61.9161C28.2342 61.9013 28.1807 62.0438 28.1421 62.1507C27.9343 62.7207 27.1862 64.7721 27.0377 65.1729C26.9962 65.2857 26.9695 65.3688 26.9487 65.4312C26.9338 65.4727 26.8774 65.4727 26.8626 65.4312C26.8418 65.3688 26.8151 65.2857 26.7735 65.1729C26.628 64.7721 25.8769 62.7207 25.6691 62.1507C25.6305 62.0438 25.5771 61.9013 25.5058 61.9161C25.4316 61.931 25.4257 62.0557 25.4227 62.1507C25.3782 63.0977 25.3366 64.0536 25.295 65.0066C25.2772 65.4193 25.3901 66.0724 25.5474 66.4554L26.5865 68.9937C26.6488 69.1481 26.7824 69.4153 26.9071 69.4153C27.0318 69.4153 27.1654 69.1481 27.2277 68.9937L28.2668 66.4554C28.4242 66.0724 28.537 65.4223 28.5192 65.0066C28.4776 64.0536 28.436 63.1007 28.3915 62.1507C28.3885 62.0557 28.3826 61.931 28.3084 61.9161H28.3054Z" fill="#3867E2"/>
<path d="M28.0062 59.0037C28.0062 59.0037 27.9527 59.0096 27.1898 61.5955C27.1423 61.7558 27.0769 62.0527 26.9107 62.0527C26.7444 62.0527 26.6791 61.7587 26.6316 61.5955C25.8686 59.0096 25.8152 59.0037 25.8152 59.0037C25.6133 58.3387 25.6044 57.8221 25.6311 57.258C25.7232 55.2244 25.6875 55.8983 25.7232 55.2244C25.7321 55.0641 25.7469 54.8207 25.8211 54.8207C25.8954 54.8207 25.9904 55.1235 26.0379 55.2957C26.2635 56.1477 26.4802 57.0027 26.688 57.8607C26.7504 58.122 26.8365 58.4753 26.881 58.6623C26.8899 58.6949 26.9374 58.6949 26.9433 58.6623C26.9879 58.4753 27.074 58.1249 27.1363 57.8607C27.3412 57.0027 27.5609 56.1477 27.7865 55.2957C27.831 55.1235 27.926 54.8207 28.0002 54.8207C28.0745 54.8207 28.0893 55.0671 28.0982 55.2244C28.1338 55.8954 28.0982 55.2244 28.1902 57.258C28.217 57.8221 28.2081 58.3387 28.0062 59.0037Z" fill="#3867E2"/>
<path d="M31.3634 53.728C31.3426 53.6003 31.3099 53.5409 31.2684 53.5409C31.2149 53.5409 31.1466 53.6359 31.0784 53.8081C30.734 54.6394 30.3807 55.4974 30.0482 56.3079C29.8047 56.9016 29.6622 57.3618 29.778 57.9555C29.8968 58.5671 30.1165 60.1821 30.1402 60.3336C30.164 60.4998 30.2026 60.7373 30.2798 60.7492C30.354 60.7611 30.4727 60.482 30.541 60.3187C30.541 60.3187 31.3366 58.4543 31.7196 57.5548C31.7849 57.4004 31.8562 57.2341 31.782 56.6997C31.6276 55.6013 31.5177 54.8205 31.3663 53.728H31.3634Z" fill="#3867E2"/>
<path d="M34.3567 48.4435C34.3062 48.203 34.2736 48.1496 34.2142 48.1496C34.1637 48.1496 34.0984 48.2238 34.0272 48.3782C33.8194 48.8205 33.095 50.3702 32.9376 50.7057C32.8248 50.9491 32.6437 51.3351 32.7832 52.0149C32.8545 52.3653 33.1454 53.7695 33.2761 54.4108C33.3414 54.7225 33.4898 54.7433 33.5848 54.5503C33.6828 54.3484 34.5081 52.671 34.8377 52.006C34.9505 51.7774 35.0039 51.5845 34.9445 51.3024C34.8911 51.0412 34.4962 49.1293 34.3567 48.4435Z" fill="#3867E2"/>
<path d="M30.7933 51.3739C30.9328 50.9286 30.8527 50.4387 30.7993 50.0468C30.6953 49.2779 30.5974 48.5149 30.4875 47.7579C30.4697 47.6332 30.4549 47.5085 30.345 47.5382C30.2738 47.559 30.2174 47.743 30.1788 47.8707C30.1164 48.0815 29.4811 50.2012 29.2317 51.0414C29.1872 51.1958 29.1367 51.3976 29.1486 51.5253C29.1842 51.9439 29.2495 52.3387 29.3 52.7455C29.3683 53.2977 29.4366 53.8528 29.5138 54.4021C29.5316 54.5297 29.582 54.7108 29.6652 54.7108C29.7483 54.7108 29.8225 54.4792 29.8849 54.2774C29.9383 54.1022 29.8849 54.2774 30.7903 51.3709L30.7933 51.3739Z" fill="#3867E2"/>
<path d="M37.2898 43.0852C37.2245 42.7824 37.1591 42.6399 37.079 42.6399C37.0048 42.6399 36.9246 42.7586 36.794 42.9694C36.411 43.6018 36.0429 44.2074 35.6718 44.819C35.5382 45.0387 35.4699 45.2643 35.5471 45.582C35.6629 46.0599 36.0696 47.7225 36.1587 48.0906C36.2863 48.6131 36.3784 48.6101 36.5357 48.3429C36.7495 47.9867 37.4323 46.8407 37.554 46.6329C37.9607 45.9531 37.9756 45.9263 37.8182 45.2732C37.6906 44.7477 37.3343 43.2901 37.2838 43.0822L37.2898 43.0852Z" fill="#3867E2"/>
<path d="M33.5544 44.1243C33.5396 43.7235 33.4386 43.3613 33.3585 42.9932C33.2278 42.3875 33.0942 41.7789 32.9636 41.1822C32.9428 41.0902 32.925 41.007 32.8449 41.007C32.7647 41.007 32.7469 41.0753 32.6994 41.2149C32.5836 41.5681 31.9245 43.6077 31.7137 44.2608C31.6217 44.5429 31.6128 44.7388 31.6603 44.9912C31.8236 45.864 31.9898 46.7428 32.168 47.6898C32.1798 47.7522 32.2036 47.8412 32.3134 47.8501C32.4352 47.862 32.4856 47.7047 32.5242 47.5859C32.8122 46.7339 33.0972 45.8788 33.3703 45.0119C33.4594 44.7329 33.5663 44.3826 33.5544 44.1213V44.1243Z" fill="#3867E2"/>
<path d="M29.2089 47.7993C29.3069 47.7993 29.3871 47.4103 29.4227 47.2382C29.5771 46.4781 29.8591 45.065 29.9986 44.4059C30.1768 43.5628 30.1708 43.5598 30.0817 43.0017C30.0164 42.589 29.776 41.1017 29.7077 40.6415C29.7077 40.6415 29.678 40.4544 29.6186 40.4604C29.5503 40.4693 29.5058 40.7009 29.5058 40.7009C29.4256 41.1224 28.9774 43.5123 28.8408 44.2337C28.7537 44.6969 28.7319 45.0828 28.7755 45.3916C28.8289 45.7716 28.9952 46.9294 29.0575 47.3421C29.0813 47.4964 29.1228 47.8022 29.2119 47.8022L29.2089 47.7993Z" fill="#3867E2"/>
<path d="M40.3918 36.8771C40.2552 36.4971 40.1899 36.3932 40.0563 36.3932C39.9554 36.3932 39.8604 36.5001 39.7298 36.6871C39.5843 36.892 38.7233 38.1003 38.4176 38.5278C38.0643 39.0265 38.0821 39.077 38.3047 39.6916C38.3344 39.7747 38.8362 41.1463 39.0618 41.7697C39.2102 42.1794 39.3557 42.1468 39.516 41.933C39.7357 41.6421 40.7689 40.2616 41.0865 39.84C41.2765 39.5847 41.2765 39.3175 41.1548 38.982C40.9945 38.5397 40.3918 36.8771 40.3918 36.8771Z" fill="#3867E2"/>
<path d="M36.3309 37.9133C36.2715 37.6758 35.844 35.9955 35.6956 35.3958C35.657 35.2414 35.6095 35.1524 35.5561 35.1524C35.5145 35.1524 35.4522 35.1939 35.4047 35.3186C35.3156 35.5502 34.7159 37.1118 34.4932 37.6877C34.3864 37.9668 34.2854 38.2132 34.2854 38.4863C34.2854 38.7268 34.3448 38.9791 34.4042 39.2196C34.511 39.6709 34.805 40.897 34.9148 41.3453C35.0039 41.7164 35.1286 41.7431 35.274 41.3809C35.5917 40.5942 35.9094 39.8045 36.224 39.0148C36.3606 38.6763 36.4615 38.421 36.3339 37.9133H36.3309Z" fill="#3867E2"/>
<path d="M31.4382 34.6002C31.361 34.6298 31.3165 34.8406 31.2839 35.0009C31.0582 36.0845 30.8326 37.1771 30.607 38.2518C30.5327 38.608 30.5417 38.7149 30.6188 39.0979C30.6574 39.2819 31.1324 41.6451 31.1473 41.7193C31.1621 41.7906 31.177 41.8648 31.2304 41.8648C31.2957 41.8648 31.3076 41.8054 31.3432 41.6392C31.3907 41.4165 31.8657 39.2077 32.032 38.4358C32.1537 37.8747 32.1982 37.655 32.1062 37.2246L31.6045 34.8911C31.5778 34.7545 31.5392 34.5556 31.4353 34.5942L31.4382 34.6002Z" fill="#3867E2"/>
<path d="M29.1164 37.8659C29.1995 37.0881 29.1965 37.0732 29.0896 36.3696C29.0629 36.1915 28.7898 34.3687 28.7898 34.3687C28.769 34.2618 28.7571 34.146 28.6859 34.1638C28.6117 34.1816 28.5909 34.3865 28.5731 34.5943C28.4929 35.4552 28.2881 37.6907 28.2079 38.5428C28.1871 38.7833 28.1663 38.9822 28.2168 39.3473C28.2643 39.7066 28.4513 41.1049 28.4929 41.4255C28.5107 41.5561 28.5434 41.8085 28.6176 41.7996C28.7067 41.7877 28.7393 41.473 28.7542 41.3067C28.8403 40.4874 29.0303 38.6853 29.1164 37.8689V37.8659Z" fill="#3867E2"/>
<path d="M43.1318 31.8568C43.0753 31.7648 43.01 31.646 42.9269 31.646C42.8942 31.646 42.8557 31.646 42.8052 31.7114C42.2856 32.4001 41.7394 33.1245 41.1991 33.843C40.9823 34.1309 41.0803 34.5109 41.3416 34.9592C41.7513 35.6658 42.1728 36.3902 42.5974 37.1205C42.8408 37.5391 42.9536 37.7351 43.1704 37.4322C43.6572 36.7494 44.723 35.2561 44.723 35.2561C44.8685 35.0513 44.8388 34.8286 44.6607 34.5169C44.5182 34.2675 43.485 32.4684 43.1318 31.8539V31.8568Z" fill="#3867E2"/>
<path d="M38.2815 30.2359C38.2221 30.2359 38.1538 30.2952 38.0915 30.4229C37.7144 31.1562 37.3433 31.8836 36.9574 32.6376C36.8654 32.8187 36.7466 33.0533 36.8386 33.4184C36.996 34.0359 37.4027 35.6064 37.4502 35.7964C37.4888 35.9478 37.5541 36.2032 37.658 36.2032C37.7471 36.2032 37.7976 36.1082 37.8658 35.9746C38.231 35.265 38.6288 34.4783 38.9851 33.7955C39.2107 33.362 39.1721 33.2225 39.092 32.9167C39.0623 32.8069 38.6496 31.2393 38.4596 30.5476C38.4269 30.3398 38.3616 30.2359 38.2815 30.2359Z" fill="#3867E2"/>
<path d="M33.356 28.7486C33.3145 28.7486 33.2759 28.8139 33.2432 28.9386C33.0918 29.5234 32.5396 31.6253 32.4298 32.038C32.3407 32.3764 32.311 32.5932 32.3793 32.8752C32.5634 33.6412 33.0146 35.5263 33.0592 35.7104C33.0681 35.749 33.0918 35.8499 33.172 35.8499C33.2195 35.8499 33.2373 35.7846 33.2521 35.7312C33.3501 35.372 33.935 33.1929 34.116 32.5278C34.2764 31.9371 34.2853 31.9044 34.1457 31.3967C33.9676 30.7525 33.4629 28.9119 33.4629 28.9119C33.4303 28.802 33.3946 28.7486 33.356 28.7486Z" fill="#3867E2"/>
<path d="M29.9503 35.2087C29.977 35.3483 30.0275 35.6184 30.1136 35.6184C30.2056 35.6184 30.2412 35.3245 30.2531 35.2147C30.4104 33.8728 30.5707 32.5071 30.7311 31.1533C30.7548 30.9426 30.7103 30.7288 30.6657 30.524C30.5292 29.8827 30.2323 28.4963 30.2323 28.4963L30.2056 28.3775C30.167 28.1994 30.1225 28.0213 30.0334 28.0806C29.9325 28.146 29.8879 28.5824 29.8642 28.8377C29.7543 29.945 29.6445 31.0435 29.5346 32.1449C29.499 32.5071 29.497 32.7723 29.5287 32.9406C29.6712 33.7095 29.8137 34.4665 29.9532 35.2117L29.9503 35.2087Z" fill="#3867E2"/>
<path d="M47.0894 26.7479C47.0241 26.6143 46.8964 26.5341 46.8073 26.5341C46.6173 26.5341 46.4778 26.6945 46.3561 26.831C45.792 27.4753 45.225 28.1403 44.652 28.7756C44.3907 29.0695 44.367 29.2328 44.6401 29.7583C45.1359 30.7083 45.6228 31.6375 46.1156 32.5757C46.3353 32.9972 46.3976 33.0714 46.6114 32.8607C46.9528 32.5222 48.4194 31.0705 48.6242 30.8656C48.8825 30.6073 48.9211 30.3045 48.645 29.7672C48.167 28.8379 47.0923 26.7479 47.0923 26.7479H47.0894Z" fill="#3867E2"/>
<path d="M40.1099 30.1645C40.1782 30.4435 40.3177 30.5771 40.4424 30.3812C40.6324 30.0814 41.5528 28.6237 41.7843 28.2674C42.0278 27.8963 42.0218 27.7152 41.8823 27.2491C41.6774 26.5574 41.2559 25.1383 41.2559 25.1383C41.1787 24.877 41.1431 24.8236 41.0599 24.8236C41.0095 24.8236 40.959 24.8592 40.9085 24.9364C40.4721 25.6014 40.0268 26.2813 39.5755 26.9671C39.4449 27.166 39.4212 27.3679 39.5072 27.7122C39.7002 28.5019 39.911 29.3481 40.1099 30.1674V30.1645Z" fill="#3867E2"/>
<path d="M34.5226 27.4633L35.2114 30.1293C35.2529 30.2925 35.2826 30.4024 35.3806 30.4024C35.4756 30.4024 35.5172 30.2866 35.5558 30.1797C35.8526 29.3485 36.4375 27.677 36.4375 27.677C36.6394 27.105 36.6701 26.5746 36.5295 26.0857L35.8853 23.8265C35.8526 23.7137 35.8348 23.6365 35.7398 23.6543C35.6715 23.6662 35.6151 23.7641 35.5469 23.966C35.2144 24.9843 34.87 25.9848 34.5286 26.9972C34.4722 27.1664 34.4543 27.2169 34.5197 27.4633H34.5226Z" fill="#3867E2"/>
<path d="M31.5482 29.2029C31.572 29.3098 31.6076 29.4553 31.7264 29.4197C31.8184 29.3929 31.8481 29.2207 31.8689 29.0842C31.9164 28.7962 32.3528 26.0798 32.5131 25.0674C32.5309 24.9516 32.5072 24.7972 32.4775 24.6904C32.3617 24.2747 31.8481 22.4074 31.7086 21.8997C31.6789 21.7928 31.6492 21.6741 31.5779 21.7127C31.5334 21.7364 31.5245 21.8077 31.5037 21.9383C31.4859 22.057 30.9842 25.391 30.9159 25.8393C30.8654 26.1748 30.8654 26.3648 30.9396 26.6706C30.9396 26.6706 31.3879 28.5112 31.5423 29.2059L31.5482 29.2029Z" fill="#3867E2"/>
<path d="M53.184 24.9307C52.6288 23.85 51.946 22.5349 51.4176 21.4958C51.3404 21.3444 51.2246 21.1217 51.091 21.1484C50.9485 21.1752 50.7258 21.4305 50.5833 21.5908C49.9332 22.3181 49.2949 23.0782 48.6447 23.8025C48.3449 24.1351 48.3181 24.3221 48.6328 24.9218C49.1969 25.9995 49.7521 27.0623 50.3102 28.1281C50.5655 28.615 50.613 28.707 50.8743 28.4517C51.2543 28.0746 52.9257 26.4121 53.1662 26.1835C53.469 25.8985 53.5046 25.5452 53.187 24.9307H53.184Z" fill="#3867E2"/>
<path d="M45.1476 20.5339C45.0942 20.5458 45.0496 20.6052 44.9784 20.7091C44.7617 21.0149 43.6335 22.5646 43.304 23.0633C43.1763 23.2563 43.1526 23.476 43.2416 23.7343C43.3871 24.147 44.0432 26.0143 44.2213 26.522C44.2926 26.7268 44.4143 26.709 44.5093 26.5576C44.6429 26.3468 45.7235 24.6309 46.1362 23.9807C46.3648 23.6215 46.3292 23.4641 46.1718 23.0307C46.1273 22.909 45.5217 21.2346 45.3139 20.6556C45.2871 20.5844 45.2099 20.522 45.1476 20.5369V20.5339Z" fill="#3867E2"/>
<path d="M39.9936 21.2259C39.9936 21.2259 39.3702 19.0735 39.2722 18.747C39.2158 18.4768 39.1535 18.3462 39.0822 18.3462C39.0169 18.3462 38.9456 18.4531 38.8595 18.6579C38.4914 19.5664 38.1203 20.4718 37.7344 21.3506C37.6126 21.6237 37.5889 21.8226 37.672 22.1225L38.3994 24.8092C38.4736 25.0824 38.5834 25.1032 38.6963 24.8478L39.9402 21.9384C39.9996 21.7395 40.0352 21.407 39.9936 21.22V21.2259Z" fill="#3867E2"/>
<path d="M33.6793 23.491C33.703 23.5949 33.7327 23.7166 33.8099 23.7166C33.8871 23.7166 33.9702 23.5652 33.9999 23.4375C34.1305 22.8616 34.6798 20.4687 34.8163 19.8779C34.8906 19.5484 34.9054 19.2931 34.8282 19.017L34.0563 16.2233C34.0385 16.158 33.9435 16.161 33.9287 16.2263L33.0707 20.0234C32.9994 20.344 32.9787 20.5726 33.0529 20.8606C33.1597 21.2673 33.5724 23.0278 33.6763 23.491H33.6793Z" fill="#3867E2"/>
<path d="M46.5314 18.5921L47.5972 21.7657C47.6507 21.9201 47.7694 22.03 47.8763 21.8934C48.0099 21.7182 49.242 20.1477 49.6932 19.5659C49.9426 19.2423 49.9337 19.079 49.7318 18.5743L48.7966 15.8638C48.764 15.7717 48.6927 15.6767 48.6245 15.6886C48.5799 15.6945 48.4879 15.7836 48.4196 15.8489L46.5968 17.9033C46.4572 18.0755 46.4364 18.3011 46.5285 18.5951L46.5314 18.5921Z" fill="#3867E2"/>
<path d="M40.6087 17.5444L41.4489 20.1807C41.6033 20.6794 41.6953 20.7269 41.9061 20.3083L43.1916 17.7789C43.3162 17.5355 43.3459 17.2594 43.2331 16.9209L42.4701 14.4895C42.3544 14.1243 42.3306 14.1006 42.2623 14.1006C42.2059 14.1006 42.1406 14.1926 42.0456 14.3737C42.0456 14.3737 40.9917 16.4043 40.7096 16.9476C40.6295 17.105 40.5196 17.2594 40.6117 17.5444H40.6087Z" fill="#3867E2"/>
<path d="M36.3837 18.4261C36.4638 18.7318 36.5885 18.7318 36.6776 18.432C36.7993 18.0134 37.4762 15.6829 37.687 14.9555C37.7642 14.6883 37.7879 14.5191 37.7197 14.2757C37.6246 13.9432 37.0576 12.0164 36.8795 11.3603C36.8557 11.2742 36.826 11.2327 36.7964 11.2327C36.7607 11.2327 36.7251 11.292 36.6924 11.4108C36.5826 11.8056 35.7424 14.8011 35.6237 15.2257C35.6029 15.2999 35.6207 15.4305 35.6415 15.5107C35.8879 16.4845 36.1343 17.4582 36.3867 18.4231L36.3837 18.4261Z" fill="#3867E2"/>
<path d="M43.7053 12.5091L44.6464 15.7006C44.8186 16.3033 44.9255 16.3894 45.163 16.0212L46.6118 13.7887C46.7543 13.5749 46.784 13.287 46.6593 12.8743L45.8043 9.93816C45.6736 9.48987 45.635 9.4305 45.5489 9.4305C45.4896 9.4305 45.4213 9.50472 45.3263 9.64425L43.8181 11.9035C43.7261 12.043 43.6044 12.1648 43.7083 12.5121L43.7053 12.5091Z" fill="#3867E2"/>
<path d="M38.9934 14.1987C39.1092 14.6262 39.2131 14.65 39.3526 14.2522C39.4921 13.8484 40.3353 11.5328 40.6084 10.7668C40.6351 10.6926 40.6381 10.5293 40.6084 10.4373C40.5283 10.1701 39.6821 7.41503 39.6435 7.29034C39.605 7.16862 39.5723 7.05283 39.4803 7.09143C39.4031 7.12408 39.3467 7.29331 39.2992 7.42987C38.9488 8.4452 38.6134 9.48131 38.2512 10.4759C38.1324 10.8024 38.1027 11.0459 38.2037 11.3932C38.4738 12.3225 38.7381 13.2547 38.9964 14.1958L38.9934 14.1987Z" fill="#3867E2"/>
<path d="M41.7461 9.66816C41.8351 10.2115 41.9331 10.3154 42.1112 10.0304C42.2923 9.73941 43.367 8.10657 43.7144 7.56031C43.747 7.50688 43.7589 7.33765 43.7441 7.22781L43.0197 3.19915C42.99 3.03586 42.9633 2.87852 42.8861 2.84883C42.7881 2.81617 42.702 2.95867 42.6486 3.04477C42.1973 3.77509 41.7342 4.53511 41.2978 5.24465C41.1553 5.47919 41.0959 5.69888 41.1701 6.13529C41.369 7.31094 41.5531 8.48955 41.7461 9.66816Z" fill="#3867E2"/>
</g>
</g>
<defs>
<clipPath id="clip0_2376_11368">
<rect width="210" height="68" fill="white" transform="translate(0 0.0883179)"/>
</clipPath>
<clipPath id="clip1_2376_11368">
<rect width="210" height="68" fill="white" transform="translate(0 2.1297)"/>
</clipPath>
</defs>
</svg>
